PathFileType	4	(X/Y/Z)	RBDS024\RBDS024runT35.trc
DataRate	CameraRate	NumFrames	NumMarkers	Units	OrigDataRate	OrigDataStartFrame	OrigNumFrames
150.000000	150.000000	5	33	mm	150.000000	0	4500
Frame#	Time	L.ASIS			L.Heel.Bottom			L.Heel.Lateral			L.Heel.Top			L.Iliac.Crest			L.MT1			L.MT5			L.PSIS			L.Shank.Bottom.Lateral			L.Shank.Bottom.Medial			L.Shank.Top.Lateral			L.Shank.Top.Medial			L.Thigh.Bottom.Lateral			L.Thigh.Bottom.Medial			L.Thigh.Top.Lateral			L.Thigh.Top.Medial			R.ASIS			R.ASY			R.Heel.Bottom			R.Heel.Lateral			R.Heel.Top			R.Iliac.Crest			R.MT1			R.MT5			R.PSIS			R.Shank.Bottom.Lateral			R.Shank.Bottom.Medial			R.Shank.Top.Lateral			R.Shank.Top.Medial			R.Thigh.Bottom.Lateral			R.Thigh.Bottom.Medial			R.Thigh.Top.Lateral			R.Thigh.Top.Medial			
		X1	Y1	Z1	X2	Y2	Z2	X3	Y3	Z3	X4	Y4	Z4	X5	Y5	Z5	X6	Y6	Z6	X7	Y7	Z7	X8	Y8	Z8	X9	Y9	Z9	X10	Y10	Z10	X11	Y11	Z11	X12	Y12	Z12	X13	Y13	Z13	X14	Y14	Z14	X15	Y15	Z15	X16	Y16	Z16	X17	Y17	Z17	X18	Y18	Z18	X19	Y19	Z19	X20	Y20	Z20	X21	Y21	Z21	X22	Y22	Z22	X23	Y23	Z23	X24	Y24	Z24	X25	Y25	Z25	X26	Y26	Z26	X27	Y27	Z27	X28	Y28	Z28	X29	Y29	Z29	X30	Y30	Z30	X31	Y31	Z31	X32	Y32	Z32	X33	Y33	Z33	

1	0	2160.660576374209	1005.452605796379	907.6817286765598	2075.508880930154	169.7478784335598	978.1251082822808	2100.836904933108	174.7837396254068	932.425411367199	2100.977266010501	206.5979234255732	974.1054586698667	2064.303219721157	1078.646411555282	852.5041561910452	2286.245527389613	90.12865434635182	996.8016742593232	2239.8374228008	92.69909802390504	889.0913283632567	1981.460869118116	1040.664832945216	963.5086582853002	2190.562195813183	273.5765318711227	908.5842194524357	2151.490924931924	288.4787607893393	937.923858421348	2210.563909630713	350.0379366581491	890.4998706456158	2172.192550281626	369.3191445224841	921.8823415341296	2259.141824033733	684.3592379127214	853.1206314699035	2212.235844843142	645.0189570359514	889.4722935210123	2180.12498214285	758.854006279022	834.8424209179269	2134.276846519902	721.6290424050158	869.2925223677862	2157.126548252779	980.6492980785791	1136.948793356835	1691.927420321702	103.337135631669	1063.974333333737	1538.372929718388	215.9029888844564	1030.806082265338	1562.627987487673	200.1219711328256	1080.92251743399	1574.985612915836	237.3150727259165	1041.100041373357	2108.961076466621	1054.438903226869	1181.926178515901	1686.172427307674	60.21242693920658	1004.184202284241	1644.245638121381	68.40898089414635	1114.862244516471	1987.861235331401	1038.297395408406	1068.649504370701	1661.687630363887	277.3580913087297	1109.714053915861	1643.412549869427	302.8634650823467	1064.239716449087	1701.787964599232	345.3976213832154	1129.724397301896	1683.300952219673	369.2684351822275	1085.311404626589	1929.326914833022	647.9733883636391	1173.850741364193	1883.032021063854	669.6517742836227	1121.521933467485	1957.342667000159	752.9403902642475	1187.916262165075	1914.161823065346	772.9008638411032	1137.449178765437	
2	0.006666666666666667	2160.856150725468	1008.851880257977	907.5942176459049	2102.215781887219	155.5749800718712	978.6849822669272	2126.778159338025	161.8507313946308	932.7507473930447	2125.32726715207	193.7502199608513	974.3250034841644	2064.542916707904	1083.332523100475	852.9703014005855	2316.884470487633	89.78089580924637	998.0379828522315	2270.534469899066	88.252698092787	890.312363825496	1983.168874373729	1045.174526520111	964.1750446468619	2209.219194354536	265.9582897403947	908.1884283790753	2169.508192142076	278.2947356288551	937.6004111216325	2223.942770525402	342.9859415642121	889.5994660841776	2184.602253138498	359.8064206276423	920.9337204402478	2254.659687959489	683.700983930814	853.358001023664	2206.748484593172	645.1671831923001	889.2569763601497	2177.223494669905	759.8677652279853	835.2837280489016	2130.531831922571	723.478017783882	869.3788683489111	2159.168371720804	983.6767485706308	1135.936112594812	1678.189597656977	110.1393132825512	1065.830303533806	1532.908320726944	230.4818832323622	1030.497482922326	1554.911172692228	213.1280860224226	1080.909186704702	1570.324254749129	249.463768348943	1041.825029921794	2113.37738451844	1058.747214178235	1181.251634240469	1671.573931398768	66.9105692153033	1005.703778100056	1628.003130408067	76.57134889307797	1114.667711304588	1990.374526949461	1043.179934805535	1069.347102128753	1654.154195379746	285.7453903178015	1110.827358762733	1636.279568741862	311.0330081156536	1065.04499856792	1694.922191135146	353.6554501749153	1130.433838237986	1676.686250760889	377.3397598653859	1085.763718990928	1926.732774897388	654.2509828077392	1173.55990996227	1880.405508953648	676.6540681451933	1121.517595145277	1956.253322785731	758.7682513960142	1187.534151690267	1913.482813692527	779.3883814881392	1136.849990197423	
3	0.01333333333333333	2161.032256329765	1012.072787615738	907.4957052472016	2128.686899961065	141.7688037807183	979.2480251160277	2152.518922804928	149.2614101277221	933.1023387587929	2149.402388233902	181.2142098192891	974.5365631625349	2064.761188792526	1087.791639804177	853.4290239664651	2346.944049699185	89.94006301973961	999.3729457590738	2300.841218514453	84.31226662020104	891.6196298150431	1984.825037778485	1049.509714502076	964.8202223800134	2227.586012382228	258.5747138312401	907.8026855226349	2187.258493144361	268.3484041278589	937.256041108898	2237.069158593686	336.0756680138082	888.6932015438973	2196.785569816886	350.4269507808504	919.9507543199975	2250.065424873679	682.8403149397155	853.4512681443025	2201.235077236072	645.17584229378	889.0418124395009	2174.207395097902	760.6619652235264	835.5929546111759	2126.752197871162	725.169799332323	869.4746067497788	2161.153430361454	986.6332834107984	1134.966009185525	1664.678720316875	117.1670115131965	1067.530092090096	1527.342433688355	244.9684853890255	1030.259831098221	1547.242236350967	226.1178317285364	1080.938885252758	1565.537293153194	261.6089559038282	1042.52730976132	2117.642359665216	1063.010434086884	1180.554951193395	1657.14373522187	73.86003761373348	1007.096102825654	1612.14361806228	84.95036235544846	1114.486296667702	1992.808936932437	1047.921332315196	1070.024951491281	1646.759610700699	294.2061711932243	1111.862054982399	1629.283040881696	319.3429820717871	1065.814973819568	1688.274526673742	361.8973143346892	1131.099357688886	1670.301597455521	385.4586155402469	1086.206243486858	1924.471325675046	660.1941767710239	1173.314036150949	1878.04967681963	683.3175065451694	1121.618376398929	1955.421975148532	764.2674814636993	1187.262750535931	1912.962046992135	785.5487309321907	1136.47000177205	
4	0.02	2161.17047662952	1014.956081206311	907.3748765703483	2154.742176913668	128.6708774096453	979.8307565537341	2177.907563565557	137.3358450840239	933.5152861572599	2172.981129162959	169.2803334864158	974.7425565130321	2064.949078340024	1091.823997564262	853.8656183770888	2375.926299052439	91.10295417275842	1000.883917465979	2330.430448516553	81.34575217418663	893.0951389575326	1986.376873006297	1053.522814540563	965.4230581134524	2245.405895989597	251.6622908793422	907.4435116743953	2204.515325831117	258.8797574970553	936.8903805727323	2249.71154169755	329.4575594978486	887.789627726377	2208.54432615262	341.3225699885833	918.9284429269326	2245.248538184044	681.6155057471158	853.2831637083813	2195.662361572447	644.9366220613142	888.8356353910463	2170.96514966526	761.059973698101	835.6694127751584	2122.897847719802	726.5794614501002	869.6006852087266	2163.034699621383	989.4594305158927	1134.071803691712	1651.577203541878	124.6241040810898	1068.92582367662	1521.565033860774	259.3042479647813	1030.158529751154	1539.636484942698	239.0879044899991	1081.047670114881	1560.49443770952	273.7675951163549	1043.186589791713	2121.608674889287	1067.191805046358	1179.815789525461	1643.021192488479	81.29142935762665	1008.233563216798	1596.977182945112	93.73373539397662	1114.313327622157	1995.09336581301	1052.398912563921	1070.66255693869	1639.611143652087	302.814490316016	1112.751263236945	1622.527683533291	327.9295896542467	1066.521656974187	1682.025105138724	370.118909487161	1131.682888237896	1664.336244035731	393.6804134288219	1086.633386950911	1922.837836537048	665.5078009993789	1173.15028844431	1876.201995985301	689.3420062409849	1121.920385261684	1955.080411945475	769.1521282451	1187.195042788438	1912.742784068828	791.0953926504395	1136.498707704535	
5	0.02666666666666667	2161.256587338587	1017.37112321331	907.2223073746568	2180.17882654501	116.5715843675924	980.4512158145878	2202.76220950492	126.344210326678	934.0198836872987	2195.834164896408	158.1952410938008	974.947658981161	2065.103696276684	1095.263453811362	854.2643881004753	2403.371359697716	93.65546141732608	1002.62171791838	2358.975436109035	79.71371197114885	894.8014200127944	1987.776217752627	1057.086405941518	965.9673284676304	2262.42739324485	245.4165830309068	907.128238007127	2221.057142691897	250.0964988208769	936.5169882311649	2261.647906503932	323.2621541715284	886.9056594277706	2219.691685238195	332.6260951269034	917.8835872086773	2240.127779214445	679.9126078024507	852.7735967106321	2190.008463985384	644.3708400131846	888.6488513331188	2167.410187339389	760.9317215673921	835.4453284493989	2118.937957412311	727.6105909529088	869.7769003815074	2164.776161087339	992.0981559093607	1133.277268076027	1639.042913222557	132.6617591843736	1069.903116121831	1515.512726340829	273.4460952206954	1030.243783356368	1532.122761091553	252.0310800514121	1081.262183301181	1555.117545477246	285.9519051931607	1043.786809304747	2125.149375217298	1071.247711571551	1179.020428977313	1629.337479860806	89.37898030981938	1009.014341624793	1582.755334128305	103.0535297728676	1114.138422031729	1997.16859979347	1056.500251213875	1071.243009504044	1632.810615270821	311.6174791856329	1113.447234031012	1616.112726630521	336.888691282503	1067.148241636083	1676.330617685705	378.3062586309128	1132.156261057943	1658.951422023662	402.0383910018973	1087.044938767506	1922.061455580563	669.9483390749565	1173.096157868447	1875.048797949869	694.4753519450434	1122.494752726975	1955.40626847742	773.1888834664258	1187.395448327399	1912.938803401025	795.7893529215546	1137.069801590108	
